<?xml version="1.0" encoding="utf-8"?>
<!-- Generator: Adobe Illustrator 27.5.0, SVG Export Plug-In . SVG Version: 6.00 Build 0)  -->
<svg version="1.1" xmlns="http://www.w3.org/2000/svg" xmlns:xlink="http://www.w3.org/1999/xlink" x="0px" y="0px"
	 viewBox="0 0 500 500" style="enable-background:new 0 0 500 500;" xml:space="preserve">
<g id="Floor">
	<ellipse id="Floor_16_" style="fill:#F0F0F0;" cx="249.374" cy="342.737" rx="228.091" ry="133.128"/>
</g>
<g id="Shadows">
	<ellipse id="Shadow_19_" style="fill:#E0E0E0;" cx="155.887" cy="385.948" rx="78.8" ry="45.495"/>
	<ellipse id="Shadow_7_" style="fill:#E0E0E0;" cx="346.803" cy="383.603" rx="78.8" ry="45.495"/>
</g>
<g id="Plants">
	<g id="Plants_3_">
		<g id="XMLID_455_">
			<g id="XMLID_460_">
				<path id="XMLID_461_" style="fill:#27DEBF;" d="M72.009,329.172l9.592-5.48c0,0,4.6-25.353,1.16-47.147
					c-4.837-30.641-25.7-41.21-33.277-38.164c-7.577,3.046-9.358,12.123,4.326,29.827C61.883,278.654,72.268,300.735,72.009,329.172
					z"/>
			</g>
			<g id="XMLID_458_" style="opacity:0.15;">
				<path id="XMLID_459_" d="M72.009,329.172l9.592-5.48c0,0,4.6-25.353,1.16-47.147c-4.837-30.641-25.7-41.21-33.277-38.164
					c-7.577,3.046-9.358,12.123,4.326,29.827C61.883,278.654,72.268,300.735,72.009,329.172z"/>
			</g>
			<g id="XMLID_456_">
				<path id="XMLID_457_" style="fill:#FFFFFF;" d="M75.486,317.003c-0.032,0-0.063-0.003-0.095-0.007
					c-0.374-0.052-0.636-0.397-0.584-0.771c3.964-28.686-7.572-60.115-20.533-72.782c-0.27-0.263-0.275-0.697-0.011-0.967
					c0.264-0.267,0.697-0.275,0.967-0.011c13.198,12.897,24.955,44.838,20.932,73.946C76.115,316.754,75.821,317.003,75.486,317.003
					z"/>
			</g>
		</g>
		<g id="XMLID_416_">
			<g id="XMLID_452_">
				<path id="XMLID_453_" style="fill:#27DEBF;" d="M45.396,344.546c-1.515,0.87-4.639-1.033-5.836-1.835
					c-2.048-1.374-3.708-3.32-4.81-5.522c-1.283-2.562-1.606-5.307-1.204-8.141c0.208-1.47,0.62-2.902,1.03-4.329
					c0.403-1.401,0.805-2.801,1.208-4.202c0.397-1.382,0.799-2.811,0.616-4.238c-0.368-2.873-2.919-4.887-5.237-6.623
					c-2.564-1.92-5.235-4.455-5.22-7.915c0.011-2.669,1.394-5.148,3.048-7.244c1.654-2.095,3.617-3.946,5.112-6.157
					c1.076-1.592,1.916-3.462,1.741-5.376c-0.109-1.189-0.602-2.309-1.171-3.358c-1.222-2.253-2.833-4.316-3.676-6.736
					c-0.843-2.42-0.723-5.43,1.166-7.161c1.55-1.421,3.854-1.62,5.953-1.481c1.941,0.128,3.838,1.004,5.537,1.949
					c5.492,3.054,8.627,9.559,14.455,11.909c2.248,0.907,4.711,1.105,7.054,1.724c2.343,0.619,4.733,1.816,5.818,3.983
					c2.14,4.273-1.831,9.54-0.327,14.076c1.331,4.014,5.231,5.55,7.422,9.168c0.958,1.582,1.179,3.411,1.024,5.255
					c-0.262,3.12-0.719,5.41-2.216,8.88c-1.237,2.867-4.874,8-4.874,8C71.918,329.262,45.628,344.413,45.396,344.546z"/>
			</g>
			<g id="XMLID_450_">
				<path id="XMLID_451_" style="fill:#FFFFFF;" d="M60.967,336.25c-0.01,0-0.019,0-0.019,0c-0.387-0.016-0.68-0.335-0.665-0.712
					c1.13-27.152-11.663-57.127-20.966-65.836c-0.275-0.258-0.29-0.691-0.032-0.967c0.259-0.275,0.69-0.289,0.967-0.032
					c9.49,8.884,22.544,39.357,21.399,66.891C61.634,335.963,61.331,336.25,60.967,336.25z"/>
			</g>
			<g id="XMLID_443_">
				<path id="XMLID_448_" style="fill:#FFFFFF;" d="M56.898,304.172c-0.067,0-0.135-0.009-0.202-0.031
					c-8.723-2.697-19.596-3.172-19.704-3.176c-0.378-0.016-0.67-0.335-0.656-0.712c0.016-0.376,0.302-0.674,0.712-0.656
					c0.111,0.006,11.156,0.488,20.051,3.238c0.361,0.111,0.564,0.494,0.451,0.855C57.461,303.984,57.191,304.172,56.898,304.172z"/>
			</g>
		</g>
	</g>
	<g id="Plants_10_">
		<g id="XMLID_703_">
			<path id="XMLID_709_" style="fill:#27DEBF;" d="M438.836,336.534l-13.846-7.327c0,0-1.052-21.168,0.597-37.944
				c2.316-23.573,19.845-50.944,38.007-44.283c18.162,6.661-8.327,30.668-14.223,50.663
				C443.474,317.638,438.836,336.534,438.836,336.534z"/>
			<path id="XMLID_708_" style="opacity:0.3;" d="M438.836,336.534l-13.846-7.327c0,0-1.052-21.168,0.597-37.944
				c2.316-23.573,19.845-50.944,38.007-44.283c18.162,6.661-8.327,30.668-14.223,50.663
				C443.474,317.638,438.836,336.534,438.836,336.534z"/>
			<path id="XMLID_705_" style="fill:#FFFFFF;" d="M432.067,334.075c0.007,0,0.014,0,0.021,0c0.338-0.012,0.603-0.295,0.591-0.633
				c-1.777-52.379,24.298-78.727,24.561-78.986c0.241-0.238,0.244-0.626,0.007-0.866c-0.24-0.241-0.628-0.244-0.866-0.007
				c-0.268,0.264-26.72,26.991-24.926,79.901C431.466,333.815,431.738,334.075,432.067,334.075z"/>
		</g>
		<g id="XMLID_462_">
			<path id="XMLID_699_" style="fill:#27DEBF;" d="M445.943,340.713l-7.197-4.156c0,0-2.265-16.673,4.468-34.945
				c6.671-18.102,23.905-27.971,31.837-25.273c9.684,3.293,9.742,12.563,6.218,18.659
				C477.115,302.182,451.172,320.359,445.943,340.713z"/>
			<path id="XMLID_695_" style="opacity:0.1;" d="M445.943,340.713l-7.197-4.156c0,0-2.265-16.673,4.468-34.945
				c6.671-18.102,23.905-27.971,31.837-25.273c9.684,3.293,9.742,12.563,6.218,18.659
				C477.115,302.182,451.172,320.359,445.943,340.713z"/>
			<path id="XMLID_683_" style="fill:#FFFFFF;" d="M442.146,339.134h0.003c0.338-0.002,0.612-0.277,0.61-0.615
				c-0.143-33.118,30.954-55.501,31.268-55.724c0.275-0.195,0.341-0.577,0.145-0.853c-0.193-0.275-0.574-0.344-0.853-0.145
				c-0.319,0.226-31.931,22.98-31.785,56.729C441.535,338.861,441.809,339.134,442.146,339.134z"/>
		</g>
	</g>
</g>
<g id="Character">
	<g id="Character_23_">
		<g>
			<path style="fill:#FFA8A7;" d="M283.255,137.458c0.469-0.771,0.633-1.791,0.173-2.572c-0.468-0.794-1.47-1.152-2.396-1.119
				c-0.925,0.033-1.803,0.388-2.664,0.723c-5.14,2.003-10.483,3.499-15.924,4.457c-1.2,0.212-2.596,0.328-3.587-0.269
				c-0.373-0.224-0.623-0.626-0.673-1.058c-0.143-1.236,0.54-2.643,0.99-3.901c0.666-1.861,0.743-3.921,0.252-5.839
				c-0.292-1.141-1.529-3.314-2.865-1.506c-0.614,0.83-2.168,3.33-6.475,7.46c-4.32,4.134-3.869,7.224-8.082,11.22
				c-0.878,0.836-5.742,2.579-11.671,6.047l6.039,17.056c5.145-3.585,9.062-5.9,12.61-7.713c2.194-1.071,6.882-1.454,9.093-1.953
				c2.399-0.541,4.789-1.126,7.195-1.634c3.618-0.764,7.062-1.915,10.444-3.444c1.59-0.719,3.196-1.582,4.204-2.995
				c0.743-1.041,1.09-2.285,1.355-3.517c0.235-1.09,0.833-2.014,1.09-3.11c0.36-1.538,0.116-3.312-1.018-4.427
				C282.058,138.806,282.786,138.229,283.255,137.458z"/>
			<path style="fill:#455A64;" d="M174.367,108.381c5.29,0.04,10.641,0.506,14.873,2.798c4.232,2.292,5.435,3.396,12.556,18.183
				c7.121,14.787,13.181,27.534,13.181,27.534l21.846-9.654c0.583,5.115,5.477,14.269,8.255,16.175c0,0-11.815,7.678-20.479,13.06
				c-6.48,4.026-11.849,7.256-15.304,6.591c-3.455-0.665-6.086-2.086-12.771-12.28c-7.426-11.323-11.986-19.451-16.81-28.656
				C179.715,142.13,172.302,122.449,174.367,108.381z"/>
			<path style="fill:#37474F;" d="M214.977,156.894c-3.669,1.977-7.565,4.6-9.624,9.651c0,0-0.143-7.061,8.332-12.365
				L214.977,156.894z"/>
		</g>
		<g>
			<g>
				<path style="fill:#27DEBF;" d="M165.827,76.49l-29.537-2.179c-5.707,4.323-16.327,13.424-16.317,15.945l0,0l0.001,1.75l0,0
					c0.008,0.08,0.025,0.154,0.058,0.217c1.047,1.991,4.81,3.212,10.68,3.312c6.958,0.118,17.757-0.517,20.596-2.955
					c4.277-3.672,14.518-14.428,14.518-14.428l-1.489-0.11C165.257,77.088,165.827,76.49,165.827,76.49z"/>
				<path style="opacity:0.2;" d="M165.827,76.49l-29.537-2.179c-5.707,4.323-16.327,13.424-16.317,15.945l0,0l0.001,1.75l0,0
					c0.008,0.08,0.025,0.154,0.058,0.217c1.047,1.991,4.81,3.212,10.68,3.312c6.958,0.118,17.757-0.517,20.596-2.955
					c4.277-3.672,14.518-14.428,14.518-14.428l-1.489-0.11C165.257,77.088,165.827,76.49,165.827,76.49z"/>
				<path style="fill:#27DEBF;" d="M136.29,75.974c-5.964,4.518-17.304,14.26-16.257,16.25c1.047,1.991,4.81,3.212,10.68,3.312
					c6.958,0.118,17.757-0.517,20.596-2.955c4.277-3.672,14.518-14.428,14.518-14.428L136.29,75.974z"/>
				<path style="opacity:0.4;" d="M136.29,75.974c-5.964,4.518-17.304,14.26-16.257,16.25c1.047,1.991,4.81,3.212,10.68,3.312
					c6.958,0.118,17.757-0.517,20.596-2.955c4.277-3.672,14.518-14.428,14.518-14.428L136.29,75.974z"/>
			</g>
			<g>
				<path style="fill:#27DEBF;" d="M136.29,75.974c-0.094,0.857,2.921,2.641,2.921,2.641l-0.843-5.186L136.29,75.974z"/>
				<path style="opacity:0.3;" d="M136.29,75.974c-0.094,0.857,2.921,2.641,2.921,2.641l-0.843-5.186L136.29,75.974z"/>
			</g>
		</g>
		<g id="XMLID_421_">
			<path style="fill:#263238;" d="M131.45,402.922c-0.404,1.603-1.256,6.142-9.695,6.142s-13.281-3.459-14.941-7.747
				c-1.66-4.289-0.707-7.467-0.553-11.206c0.154-3.739-2.626-6.123-3.241-8.143c-0.906-2.977,1.581-7.074,1.581-7.074
				L131.45,402.922z"/>
			<path style="fill:#263238;" d="M210.57,379.635c0.311,0.229,0.497,2.858-0.393,4.062c-0.613,0.829-6.272,4.937-13.255,4.082
				c-6.983-0.855-10.391-2.671-14.381-5.024c-4.083-2.408-6.901-2.756-11.056-2.742c-4.023,0.013-6.997-0.771-7.341-1.815
				c-0.604-1.832-0.647-3.005,0.235-2.979L210.57,379.635z"/>
			<path id="XMLID_441_" style="fill:#FFA8A7;" d="M107.411,368.749c0,7.692,14.728,9.097,14.365,2.902l5.134-17.977l-16.648-1.766
				L107.411,368.749z"/>
			<path style="fill:#27DEBF;" d="M131.368,399.073c-0.546-1.461-2.412-3.714-3.184-5.07c-4.031-7.083-6.1-14.965-5.592-23.155
				c0.028-0.449,0.09-1.319-0.315-1.646c-0.429-0.345-0.909-0.016-1.411,0.125c-0.008-0.009-0.014-0.017-0.022-0.025
				c0,0-0.007,0.023-0.01,0.035c-0.629,0.174-1.487,0.348-2.657,0.318c-2.979-0.076-6.129-1.226-6.875-1.226
				c-0.58,0-0.998,1.74-1.215,3.655c-0.953-0.804-1.114-2.158-1.947-3.051c-0.449-0.482-0.671-0.525-0.567-1.203
				c0.068-0.441,0.151-0.835,0.216-1.277c-0.722-0.325-1.751,2.477-2.674,4.595c-1.067,2.452-2.357,5.21-1.708,7.94
				c0.362,1.52,1.114,2.911,1.785,4.322c1.158,2.43,2.109,5.051,2,7.741c-0.048,1.179-0.3,2.346-0.293,3.525
				c0.023,4.109,2.351,7.659,6.07,9.407c4.834,2.272,12.452,3.068,17.388,0.148C132.087,403.209,131.915,400.534,131.368,399.073z"
				/>
			<path style="opacity:0.4;" d="M131.368,399.073c-0.546-1.461-2.412-3.714-3.184-5.07c-4.031-7.083-6.1-14.965-5.592-23.155
				c0.028-0.449,0.09-1.319-0.315-1.646c-0.429-0.345-0.909-0.016-1.411,0.125c-0.008-0.009-0.014-0.017-0.022-0.025
				c0,0-0.007,0.023-0.01,0.035c-0.629,0.174-1.487,0.348-2.657,0.318c-2.979-0.076-6.129-1.226-6.875-1.226
				c-0.58,0-0.998,1.74-1.215,3.655c-0.953-0.804-1.114-2.158-1.947-3.051c-0.449-0.482-0.671-0.525-0.567-1.203
				c0.068-0.441,0.151-0.835,0.216-1.277c-0.722-0.325-1.751,2.477-2.674,4.595c-1.067,2.452-2.357,5.21-1.708,7.94
				c0.362,1.52,1.114,2.911,1.785,4.322c1.158,2.43,2.109,5.051,2,7.741c-0.048,1.179-0.3,2.346-0.293,3.525
				c0.023,4.109,2.351,7.659,6.07,9.407c4.834,2.272,12.452,3.068,17.388,0.148C132.087,403.209,131.915,400.534,131.368,399.073z"
				/>
			<path id="XMLID_429_" style="fill:#FFA8A7;" d="M167.319,362.48c4.164,2.992,8.011,3.362,12.906,0.905l2.465-26.23h-18.014
				L167.319,362.48z"/>
			<path id="XMLID_428_" style="fill:#263238;" d="M127.875,194.334c-3.327,30.523-7.743,91.137-7.743,91.137
				s-4.999,9.182-6.949,23.907c-2.409,18.181-5.238,52.77-5.238,52.77s8.506,5.527,16.776,2.855c0,0,18.923-54.603,22.698-72.503
				c3.294-15.622,9.127-47.707,9.127-47.707l7.295,43.663c0,0-2.865,9.064-2.355,21.28c0.351,8.409,3.663,40.559,3.663,40.559
				c2.738,2.588,13.265,2.937,16.777,0.699c0,0,5.053-53.527,5.79-62.36c0.97-11.62,2.766-94.99,2.766-94.99L127.875,194.334z"/>
			<path d="M156.546,244.794l4.073-18.775c0,0,9.103-2.077,15.605-7.293c0,0-2.384,5.991-12.354,10.575l-4.159,17.589l3.578,38.581
				L156.546,244.794z"/>
			<path style="fill:#27DEBF;" d="M206.994,374.389c-6.898-2.579-13.604-5.592-17.852-8.58c-1.19-0.837-2.107-1.542-2.868-2.203
				c-1.755-1.762-2.826-5.6-3.585-6.038c-0.246-0.142-0.596,0.03-1.098,0.343c-0.288-0.306-0.546-0.478-0.807-0.485l-0.1,1.06
				c-1.061,0.655-2.566,1.449-4.719,1.722c-4.227,0.538-4.396-0.309-4.529,1.066c-0.033,0.335-0.028,0.885,0.023,1.535
				c-2.253-0.288-4.045-0.945-4.174-1.79l-0.372-2.704c-2.239-0.118-2.239,3.881-2.804,8.394c-0.457,3.652-1.23,6.315-0.132,8.947
				c3.486,2.822,9.411,1.884,12.824,2.317c4.826,0.613,7.202,4.079,13.959,6.138c10.89,3.318,17.518-1.226,19.464-3.173
				C211.468,378.508,210.753,375.794,206.994,374.389z"/>
			<path style="opacity:0.4;" d="M206.994,374.389c-6.898-2.579-13.604-5.592-17.852-8.58c-1.19-0.837-2.107-1.542-2.868-2.203
				c-1.755-1.762-2.826-5.6-3.585-6.038c-0.246-0.142-0.596,0.03-1.098,0.343c-0.288-0.306-0.546-0.478-0.807-0.485l-0.1,1.06
				c-1.061,0.655-2.566,1.449-4.719,1.722c-4.227,0.538-4.396-0.309-4.529,1.066c-0.033,0.335-0.028,0.885,0.023,1.535
				c-2.253-0.288-4.045-0.945-4.174-1.79l-0.372-2.704c-2.239-0.118-2.239,3.881-2.804,8.394c-0.457,3.652-1.23,6.315-0.132,8.947
				c3.486,2.822,9.411,1.884,12.824,2.317c4.826,0.613,7.202,4.079,13.959,6.138c10.89,3.318,17.518-1.226,19.464-3.173
				C211.468,378.508,210.753,375.794,206.994,374.389z"/>
		</g>
		<g>
			<path id="XMLID_419_" style="fill:#37474F;" d="M149.984,107.783c-8.615,0.419-14.329,1.386-20.31,2.203
				c-6.527,0.891-5.931,5.95-5.93,17.131c0.001,16.443,5.35,44.919,5.35,44.919l-2.288,28.034
				c7.651,8.181,44.295,11.76,63.837-0.231c0,0,0.525-55.774,0-65.177c-0.924-16.547-11.675-26.057-17.778-26.524
				C172.865,108.137,164.3,107.086,149.984,107.783z"/>
		</g>
		<g id="XMLID_285_">
			<g id="XMLID_365_">
				<path style="fill:#263238;" d="M144.052,58.723c0,0-4.613,0.643-6.305,4.119c-1.471,3.024-0.939,10.325,1.022,18.281
					c1.961,7.956,3.809,12.75,4.961,14.951c1.153,2.202,3.522,2.821,3.522,2.821l-0.231-9.441l-0.342-6.578
					c0,0,4.223-5.766,4.687-10.492c0.597-6.082-0.684-8.571-0.684-8.571L144.052,58.723z"/>
				<path id="XMLID_414_" style="fill:#263238;" d="M151.502,67.858c0.032,9.736,7.95,17.603,17.686,17.572
					c9.736-0.032,17.034-8.018,17.003-17.754c-0.032-9.736-7.381-17.535-17.117-17.503C159.337,50.203,151.47,58.122,151.502,67.858
					z"/>
				<path id="XMLID_376_" style="fill:#FFA8A7;" d="M146.93,81.826c-1.587,1.376-2.878-2.185-4.213-3.573
					c-1.335-1.388-5.685-3.276-7.837,1.297c-2.193,4.66,1.993,10.991,5.244,12.499c4.764,2.209,6.899-2.594,6.899-2.594
					l0.507,19.857c5.017,9.038,12.148,10.678,16.875,10.169c4.727-0.509,5.767-5.427,2.311-9.393l-0.038-6.47
					c0,0,5.343,0.793,7.946,0.382c4.332-0.684,6.596-3.952,7.896-8.648c2.087-7.542,2.926-20.218,0.026-34.862
					c-4.852-3.753-21.679-3.132-31.861,3.323C151.43,76.8,148.516,80.45,146.93,81.826z"/>
				<path style="fill:#263238;" d="M180.725,54.087c-1.999-2.123-4.456-3.819-7.148-4.93c-2.156-0.889-4.563-1.479-6.891-1.466
					c-3.074,0.016-6.132-0.454-9.207-0.356c-5.337,0.17-11.777,2.342-14.187,7.532c-1.102,2.374-1.292,4.876,0.887,6.518
					c1.86,1.401,4.244,2.034,6.506,2.428c3.952,0.688,7.871,1.558,11.85,2.086c4.236,0.562,8.649,0.82,12.841-0.183
					c1.978-0.473,3.889-1.245,5.581-2.382c0.869-0.584,1.676-1.259,2.406-2.009c0.282-0.29,1.032-0.885,1.122-1.281
					c0.099-0.436-0.425-1.175-0.628-1.564C183.023,56.876,181.961,55.4,180.725,54.087z"/>
				<path id="XMLID_372_" style="fill:#F28F8F;" d="M166.677,103.617c0,0-9.681-1.918-13.07-3.705
					c-2.268-1.196-4.139-3.276-4.691-4.611c0,0,0.643,2.869,2.674,5.448c2.484,3.154,15.094,5.442,15.094,5.442L166.677,103.617z"/>
			</g>
			<g id="XMLID_286_">
				<path id="XMLID_351_" style="fill:#263238;" d="M164.928,78.614c0.003,1.113-0.862,2.015-1.932,2.015
					c-1.071,0.001-1.942-0.901-1.946-2.014c-0.003-1.113,0.861-2.015,1.932-2.016C164.053,76.6,164.924,77.502,164.928,78.614z"/>
				<path id="XMLID_349_" style="fill:#263238;" d="M162.996,71.864l-4.322,1.94c-0.512-1.238,0.041-2.676,1.235-3.211
					C161.102,70.057,162.484,70.626,162.996,71.864z"/>
				<path id="XMLID_309_" style="fill:#B16668;" d="M165.117,91.826l6.19,2.3c-0.606,1.774-2.483,2.697-4.193,2.062
					C165.405,95.553,164.511,93.6,165.117,91.826z"/>
				<path style="fill:#F28F8F;" d="M167.115,96.188c0.571,0.212,1.158,0.236,1.713,0.127c-0.071-1.597-1.378-2.874-2.992-2.874
					c-0.294,0-0.571,0.055-0.839,0.134C165.201,94.737,165.967,95.761,167.115,96.188z"/>
				<path id="XMLID_308_" style="fill:#263238;" d="M181.121,73.013l-4.478-1.655c0.414-1.264,1.752-1.917,2.988-1.46
					C180.868,70.355,181.535,71.75,181.121,73.013z"/>
				<path id="XMLID_307_" style="fill:#263238;" d="M180.882,78.036c0.003,1.112-0.861,2.015-1.933,2.015
					c-1.071,0-1.942-0.901-1.945-2.013c-0.004-1.112,0.862-2.015,1.932-2.015C180.008,76.021,180.879,76.923,180.882,78.036z"/>
				<polygon id="XMLID_301_" style="fill:#F28F8F;" points="170.505,75.974 171.454,88.829 177.535,86.734 				"/>
			</g>
		</g>
		<g>
			<path style="fill:#27DEBF;" d="M135.025,68.789c0.068,2.556,0.502,5.015,1.258,7.336c0.499-0.816,1.129-1.452,1.806-2.055
				c3.642-3.24,8.305-5.67,13.282-7.602l0.022-0.001c11.156-4.307,24.183-4.979,34.576-1.312c-0.223-2.212-0.62-4.292-1.387-6.244
				c-3.797-9.891-11.465-15.072-23.715-13.8C146.497,46.603,134.646,54.581,135.025,68.789z"/>
			<path style="fill:#263238;" d="M161.329,60.042c3.336-1.122,11.844-1.782,14.332-1.001c0,0,1.822-1.448,2.988-3.295
				c1.166-1.847,0.768-4.174-0.325-4.647c-1.092-0.473-1.165,0.959-5.398,3.055c0,0,1.036-2.554,0.348-4.272
				c-0.688-1.718-2.143,1.366-5.289,3.352S161.73,56.233,161.329,60.042z"/>
		</g>
		<g>
			<g>
				<path style="fill:#FFA8A7;" d="M130.193,110.649c0,0-12.99,0-17.732,13.834c-2.571,7.501-8.922,26.655-12.771,38.503
					c-6.727-3.255-23.038-11.142-26.292-14.007c-3.967-3.325-6.759-7.015-8.302-8.915c-1.972-2.427-3.119-4.458-3.981-6
					c-2.055-3.677-2.697-6.748-3.193-8.188c-0.863-2.513-4.092,0.136-4.043,4.617c0.035,3.274,0.898,5.35,1.423,7.169
					c-1.616-0.15-6.324-0.631-7.052-0.689c-2.539-0.203-10.326-0.071-9.546,4.056c0.175,0.924,0.8,1.771,0.715,2.708
					c-0.041,0.447-0.242,0.861-0.38,1.289c-0.518,1.608-0.067,3.491,1.125,4.691c0.583,0.587,0.942,1.097,1.137,1.917
					c0.183,0.769,0.251,1.61,0.733,2.268c0.385,0.526,0.984,0.847,1.466,1.284c0.626,0.567,1.047,1.321,1.445,2.067
					c0.397,0.746,0.791,1.509,1.378,2.117c1.394,1.443,3.622,1.065,5.434,1.047c2.41-0.024,5.623-0.083,8.232,0.172
					c4.779,1.11,22.065,15.999,36.992,24.115c5.113,2.78,9.288,4.159,12.528,2.448l-0.035,0c2.734-1.083,4.076-4.072,5.822-8.36
					c3.963-10.028,14.212-36.782,14.212-36.782C133.426,130.886,133.103,116.05,130.193,110.649z"/>
				<path style="fill:#F28F8F;" d="M52.664,139.051c2.411-0.036,3.494,1.207,4.481,4.364c0.585,1.872,2.286,5.122,4.762,5.824
					c0,0-1.729,0.401-3.011-0.262c-1.283-0.663-1.581-0.686-1.923,0.051c-0.342,0.737-1.126,1.268-1.126,1.268
					s1.617,0.87,1.183,2.802c-0.433,1.932-4.775,3.424-8.957,2.77c0,0,6.393-0.133,7.12-2.422c0.726-2.289-3.113-3.572-5.604-3.432
					c0,0,6.036-0.536,6.277-2.656c0.241-2.12-2.532-2.737-6.105-2.476c0,0,4.904-0.707,5.17-2.54
					C55.252,140.112,53.483,139.476,52.664,139.051z"/>
			</g>
			<path style="fill:#455A64;" d="M132.413,109.585c-5.239,0.734-9.374,1.009-13.268,3.837c-3.894,2.828-6.051,4.969-11.169,20.563
				c-5.118,15.594-8.903,28.148-8.903,28.148l-22.095-10.768c0.093,5.147-4.483,14.525-6.988,16.78c0,0,15.056,10.635,21.42,14.64
				c6.364,4.006,13.485,7.566,16.823,6.453c3.338-1.113,5.116-3.895,10.406-14.878c5.875-12.199,9.329-20.856,12.903-30.615
				C131.541,143.745,136.305,123.261,132.413,109.585z"/>
			<path style="fill:#37474F;" d="M99.072,162.133c7.189,4.023,9.906,9.155,9.906,9.155s-1.029-7.254-8.867-12.281L99.072,162.133z"
				/>
		</g>
	</g>
</g>
<g id="Speech_Bubble">
	<g id="Speech_Bubble_5_">
		<g id="Speech_Bubble_6_">
			<g id="Speach_Bubble_2_">
				<g id="XMLID_717_">
					<path id="XMLID_724_" style="fill:#27DEBF;" d="M259.028,33.738L214.457,59.45c-0.832,0.48-1.507,1.649-1.507,2.609v43.248
						c0,0.961,0.678,2.122,1.515,2.595l3.541,2.017c0.837,0.472,2.19,0.466,3.022-0.015L265.6,84.192
						c0.832-0.48,1.507-1.649,1.507-2.61V38.335c0-0.961-0.678-2.122-1.515-2.595l-3.541-2.017
						C261.213,33.251,259.86,33.258,259.028,33.738z"/>
					<path id="XMLID_723_" style="fill:#27DEBF;" d="M219.522,109.034V65.786c0-0.961,0.675-2.129,1.507-2.61L265.6,37.465
						c0.832-0.48,1.507-0.091,1.507,0.87v43.247c0,0.961-0.674,2.129-1.507,2.61l-44.572,25.712
						C220.197,110.384,219.522,109.995,219.522,109.034z"/>
					<path id="XMLID_722_" style="opacity:0.2;" d="M221.029,109.904c-0.802,0.465-2.267,0.482-3.024,0.018l-3.538-2.023
						c-0.835-0.466-1.517-1.628-1.517-2.589V62.059c0-0.501,0.188-1.051,0.48-1.538l6.537,3.783
						c-0.278,0.466-0.445,1.002-0.445,1.482v43.244C219.522,109.911,220.141,110.418,221.029,109.904z"/>
					<path id="XMLID_719_" style="opacity:0.5;fill:#FFFFFF;" d="M267.086,38.062c-0.118-0.759-0.738-1.03-1.489-0.599
						l-44.566,25.714c-0.417,0.243-0.793,0.654-1.065,1.127l-6.545-3.783c0.272-0.452,0.633-0.842,1.037-1.072l44.573-25.713
						c0.828-0.48,2.178-0.487,3.02-0.014l3.538,2.015C266.349,36.169,266.982,37.164,267.086,38.062z"/>
				</g>
			</g>
			<g>
				<path style="fill:#27DEBF;" d="M212.949,76.88l-10.243,10.832c-0.647,0.658-0.423,1.637,0.229,2.061
					c0.25,0.163,6.536,3.818,6.536,3.818l10.051-12.865L212.949,76.88z"/>
				<path style="opacity:0.1;" d="M212.949,76.88l-10.243,10.832c-0.647,0.658-0.423,1.637,0.229,2.061
					c0.25,0.163,6.536,3.818,6.536,3.818l10.051-12.865L212.949,76.88z"/>
				<path style="fill:#27DEBF;" d="M219.522,80.726l-10.243,10.832c-0.895,0.91-0.122,2.437,1.141,2.254l9.101-0.085
					C220.701,93.727,220.701,80.726,219.522,80.726z"/>
			</g>
		</g>
		<path id="Clapperboard" style="fill:#455A64;" d="M255.408,59.813l-20.577,11.88l20.394-17.8c0.604-0.527,1.01-1.6,0.907-2.396
			l-0.407-2.916c-0.103-0.797-0.676-1.015-1.279-0.488l-23.503,20.514c-0.604,0.527-1.01,1.6-0.907,2.396l0.407,2.916
			c0.037,0.284,0.135,0.491,0.271,0.62c-0.217,0.415-0.352,0.892-0.352,1.334v18.638c0,0.884,0.537,1.29,1.2,0.907l23.846-13.768
			c0.663-0.382,1.2-1.409,1.2-2.292V60.72C256.608,59.837,256.071,59.431,255.408,59.813z M247.455,58.894l1.565-4.274
			c0.178-0.468,0.567-1.06,0.869-1.323l3.109-2.714c0.302-0.263,0.402-0.098,0.224,0.369l-1.565,4.274
			c-0.178,0.467-0.567,1.06-0.869,1.323l-3.109,2.713C247.377,59.527,247.277,59.362,247.455,58.894z M239.943,65.451l1.566-4.274
			c0.178-0.467,0.567-1.06,0.869-1.323l3.109-2.713c0.302-0.264,0.402-0.098,0.224,0.369l-1.566,4.274
			c-0.178,0.467-0.567,1.06-0.869,1.323l-3.109,2.714C239.864,66.084,239.764,65.919,239.943,65.451z M232.43,72.008l1.565-4.274
			c0.178-0.467,0.567-1.06,0.869-1.323l3.109-2.714c0.302-0.263,0.402-0.098,0.224,0.369l-1.566,4.274
			c-0.178,0.467-0.567,1.06-0.869,1.323l-3.109,2.714C232.352,72.641,232.252,72.475,232.43,72.008z M238.404,72.299l-1.697,3.258
			c-0.219,0.461-0.647,0.978-0.955,1.156l-3.176,1.834c-0.308,0.178-0.381-0.051-0.162-0.512l1.697-3.258
			c0.219-0.46,0.646-0.978,0.955-1.156l3.176-1.834C238.55,71.609,238.623,71.838,238.404,72.299z M246.079,67.868l-1.697,3.258
			c-0.219,0.461-0.646,0.978-0.955,1.156l-3.176,1.834c-0.308,0.178-0.381-0.051-0.162-0.511l1.697-3.258
			c0.219-0.461,0.647-0.978,0.955-1.156l3.176-1.834C246.225,67.178,246.298,67.407,246.079,67.868z M253.754,63.436l-1.697,3.258
			c-0.219,0.46-0.647,0.978-0.955,1.156l-3.176,1.834c-0.308,0.178-0.381-0.051-0.162-0.511l1.697-3.258
			c0.219-0.461,0.646-0.978,0.955-1.156l3.177-1.834C253.901,62.747,253.973,62.976,253.754,63.436z"/>
	</g>
</g>
<g id="Video_camera_1_">
	<g id="Video_camera">
		<g>
			<path style="fill:#37474F;" d="M327.785,414.013c-0.33-0.069-0.554-0.734-0.501-1.484l14.468-232.932l7.204,0.764
				l-20.434,232.422C328.445,413.53,328.115,414.082,327.785,414.013z"/>
			<path style="fill:#37474F;" d="M395.406,373.94c0.149,0.738,0.009,1.337-0.314,1.339c-0.322,0.002-0.731-0.589-0.913-1.319
				l-44.943-189.965l8.305-1.671L395.406,373.94z"/>
			<path style="fill:#37474F;" d="M302.871,359.543l28.913-183.466l7.61,5.218l-35.249,178.305
				c-0.195,0.727-0.623,1.307-0.957,1.296C302.855,360.884,302.713,360.278,302.871,359.543z"/>
		</g>
		<g>
			<g>
				<g>
					<g>
						<g>
							<path style="fill:#455A64;" d="M276.937,123.118c-1.282-0.748-3.055-0.649-5.019,0.479c-3.928,2.257-7.119,7.76-7.128,12.29
								c-0.004,2.219,0.758,3.787,1.998,4.548c0.417,0.256,5.431,2.821,5.825,3.052c1.283,0.751,3.057,0.654,5.024-0.477
								c3.928-2.257,7.119-7.76,7.128-12.29c0.004-2.236-0.77-3.812-2.027-4.565C282.328,125.91,277.334,123.35,276.937,123.118z"/>
							<path style="fill:#455A64;" d="M265.616,139.248c0.04,0.063,0.079,0.127,0.123,0.186c-0.048-0.063-0.091-0.127-0.135-0.194
								l0.008,0.004C265.612,139.248,265.616,139.248,265.616,139.248z"/>
							<path style="fill:#263238;" d="M270.541,138.896c-0.009,4.53,3.168,6.373,7.096,4.115c3.928-2.257,7.119-7.76,7.128-12.29
								c0.009-4.53-3.168-6.373-7.096-4.116C273.742,128.863,270.55,134.366,270.541,138.896z"/>
						</g>
					</g>
					<path style="opacity:0.15;" d="M272.444,143.392c-0.024-0.012-0.048-0.028-0.071-0.04c-0.02-0.012-0.036-0.02-0.056-0.032
						c-0.036-0.02-0.075-0.04-0.119-0.064c-0.028-0.02-0.059-0.036-0.095-0.055c-0.067-0.036-0.139-0.075-0.214-0.115
						c-0.147-0.083-0.309-0.174-0.48-0.266c-0.563-0.309-3.43-1.717-3.918-1.987c-0.151-0.087-0.285-0.163-0.397-0.222
						c-0.139-0.079-0.246-0.143-0.305-0.178c-0.159-0.095-0.309-0.206-0.448-0.329c-0.067-0.056-0.131-0.119-0.194-0.182
						c-0.107-0.103-0.206-0.218-0.293-0.337c-0.044-0.051-0.079-0.099-0.115-0.151c-0.044-0.059-0.083-0.123-0.123-0.186
						c0,0-0.004,0-0.004-0.004l-0.008-0.004c-0.519-0.84-0.817-1.97-0.813-3.354c0.004-1.507,0.357-3.12,0.975-4.686
						c0.079-0.202,0.163-0.4,0.25-0.595c0.064-0.147,0.127-0.293,0.198-0.436c0.068-0.147,0.139-0.289,0.21-0.432
						c0-0.004,0-0.008,0.004-0.012l5.718,3.081c-0.999,1.982-1.602,4.127-1.606,6.09c-0.004,1.364,0.281,2.482,0.789,3.322
						C271.631,142.71,272.003,143.102,272.444,143.392z"/>
				</g>
				<g id="XMLID_283_">
					<path id="XMLID_284_" style="fill:#37474F;" d="M308.638,146.936c-0.006,3.077-2.172,6.812-4.84,8.344
						c-0.774,0.445-1.506,0.658-2.154,0.656c-0.464-0.001-0.885-0.112-1.25-0.32l-0.007-0.004c-0.002,0-0.002,0-0.002,0
						l-24.893-14.086l-0.071-0.039c-0.134-0.082-0.257-0.18-0.373-0.286c-0.629-0.578-1.001-1.544-0.998-2.824
						c0.006-3.075,2.172-6.812,4.84-8.344c1.109-0.637,2.13-0.793,2.944-0.534c0.138,0.041,0.267,0.096,0.393,0.163l0.021,0.011
						l0.136,0.08l24.842,14.053v0.002C308.101,144.312,308.641,145.394,308.638,146.936z"/>
				</g>
				<path style="opacity:0.15;" d="M298.387,148.613c-0.444,1.125-0.698,2.283-0.7,3.365c-0.003,0.994,0.211,1.805,0.584,2.409
					l-3.217-1.862l-0.071-0.04c-0.003,0-0.003-0.003-0.006-0.003l-17.642-9.904l-0.08-0.046l-0.023-0.014
					c-0.006-0.003-0.011-0.003-0.017-0.009l-0.006-0.003l-1.708-0.991c-0.006-0.003-0.006-0.006-0.009-0.006l-0.02-0.011
					c-0.857-0.512-1.387-1.589-1.384-3.112c0.003-1.019,0.242-2.113,0.658-3.172L298.387,148.613z"/>
			</g>
			<g>
				<path style="fill:#37474F;" d="M385.112,118.003L385.112,118.003c0-0.341-0.226-0.683-0.677-0.943l-58.037-33.508
					c-0.902-0.521-2.365-0.521-3.267,0l-36.58,21.12c-0.451,0.261-0.677,0.602-0.677,0.944h0v14.158
					c0,0.341,0.226,0.683,0.677,0.943l58.038,33.508c0.902,0.521,2.365,0.521,3.267,0l36.58-21.12
					c0.451-0.261,0.677-0.602,0.677-0.944h0l-0.001-6.526l0.257-0.148c-0.163-0.266-0.245-0.586-0.256-0.951V118.003z
					 M379.939,121.542L379.939,121.542L379.939,121.542L379.939,121.542z M291.048,109.154L291.048,109.154L291.048,109.154
					L291.048,109.154z"/>
				<path style="fill:#455A64;" d="M286.551,106.558l58.037,33.508c0.902,0.521,2.365,0.521,3.267,0l36.58-21.12
					c0.902-0.521,0.902-1.366,0-1.886l-58.037-33.508c-0.902-0.521-2.365-0.521-3.268,0l-36.58,21.12
					C285.649,105.192,285.649,106.037,286.551,106.558z"/>
				<path style="fill:#263238;" d="M344.591,140.065l-58.044-33.504c-0.445-0.264-0.672-0.604-0.672-0.943v14.157
					c0,0.34,0.226,0.679,0.672,0.943l58.044,33.504c0.445,0.264,1.041,0.392,1.63,0.392v-14.157
					C345.633,140.457,345.036,140.329,344.591,140.065z"/>
			</g>
			<g>
				<path style="fill:#455A64;" d="M397.375,134.594v38.703c0,1.034-0.732,2.309-1.63,2.83l-35.632,20.563
					c-0.898,0.521-2.354,0.521-3.26,0.008l-1.003-0.581l-2.181-1.26v-0.506l-2.626-1.509l-0.43,0.249h-0.008l-2.181-1.26
					l-0.438-0.249c-0.007,0-0.007-0.008-0.015-0.008l-0.113-0.068c-0.34-0.189-0.649-0.49-0.913-0.845
					c-0.226-0.294-0.415-0.634-0.536-1.004c-0.023-0.068-0.045-0.143-0.068-0.219c-0.083-0.257-0.121-0.513-0.121-0.762v-40.59
					l0.257-0.143l38.892-22.457c0.158,0.272,0.377,0.506,0.687,0.687l9.689,5.592C396.643,132.285,397.375,133.56,397.375,134.594z"
					/>
				<path style="fill:#263238;" d="M360.113,196.69c-0.506,0.294-1.072,0.445-1.637,0.445c-0.558,0-1.124-0.151-1.622-0.438
					l-1.003-0.581l-2.181-1.26v-0.506l-2.626-1.509l-0.43,0.249h-0.008l-2.181-1.26l-0.438-0.249c-0.007,0-0.007-0.008-0.015-0.008
					c-0.408-0.242-0.755-0.551-1.026-0.913c-0.226-0.294-0.415-0.634-0.536-1.004c-0.023-0.068-0.045-0.143-0.068-0.219
					c-0.083-0.294-0.121-0.604-0.121-0.921l-0.158-48.06l0.158,6.542c0,0.332,0.091,0.664,0.257,0.943
					c0.159,0.279,0.4,0.521,0.687,0.687l11.794,6.814c-0.287,0.43-0.423,0.981-0.475,1.607v38.696L360.113,196.69z"/>
				<path style="fill:#263238;" d="M294.245,158.782c-0.902-0.521-1.634-1.788-1.634-2.83l0-14.041l56.677,32.722v15.927
					L294.245,158.782z"/>
				<path style="fill:#37474F;" d="M395.745,133.651l-35.628,20.57c-0.902,0.521-1.634,1.788-1.634,2.83l0,38.7
					c0,1.042,0.731,1.464,1.634,0.943l35.628-20.57c0.902-0.521,1.634-1.788,1.634-2.83v-38.7
					C397.379,133.552,396.647,133.13,395.745,133.651z"/>
			</g>
			<g>
				<path style="fill:#27DEBF;" d="M292.581,122.427c-0.846,0.489-1.532,1.729-1.532,2.771l0,21.003c0,1.042,0.732,2.309,1.634,2.83
					l48.841,28.199c0.902,0.521,2.32,0.512,3.166-0.02c0.846-0.532,1.533-1.807,1.533-2.849v-20.923
					c0-1.042-0.732-2.308-1.635-2.828l-48.84-28.126C294.845,121.964,293.427,121.938,292.581,122.427z"/>
				<path style="opacity:0.2;" d="M292.581,122.427c-0.846,0.489-1.532,1.729-1.532,2.771l0,21.003c0,1.042,0.732,2.309,1.634,2.83
					l48.841,28.199c0.902,0.521,2.32,0.512,3.166-0.02c0.846-0.532,1.533-1.807,1.533-2.849v-20.923
					c0-1.042-0.732-2.308-1.635-2.828l-48.84-28.126C294.845,121.964,293.427,121.938,292.581,122.427z"/>
				<path style="fill:#27DEBF;" d="M292.682,124.255l48.846,28.199c0.902,0.521,1.634,1.788,1.633,2.83l-0.004,21.003
					c0,1.042-0.732,1.464-1.634,0.943l-48.841-28.199c-0.902-0.521-1.634-1.788-1.634-2.83l0-21.003
					C291.048,124.156,291.78,123.734,292.682,124.255z"/>
				<path style="opacity:0.4;" d="M292.682,124.255l48.846,28.199c0.902,0.521,1.634,1.788,1.633,2.83l-0.004,21.003
					c0,1.042-0.732,1.464-1.634,0.943l-48.841-28.199c-0.902-0.521-1.634-1.788-1.634-2.83l0-21.003
					C291.048,124.156,291.78,123.734,292.682,124.255z"/>
				<path style="opacity:0.15;" d="M346.221,153.436v20.925c0,1.041-0.687,2.317-1.532,2.845c-0.77,0.49-2.015,0.536-2.913,0.143
					c0.785,0.317,1.381-0.121,1.381-1.064l0.008-21c0-0.521-0.181-1.102-0.483-1.607v-0.008l3.094-1.781
					C346.048,152.38,346.221,152.938,346.221,153.436z"/>
				<path style="fill:#E6E6E6;" d="M310.42,138.035c2.765,1.596,10.6,6.12,13.364,7.716c0.541,0.313,0.978,1.073,0.974,1.698
					l-0.007,1.264c-0.004,0.625-0.445,0.878-0.987,0.566l-13.345-7.705c-0.541-0.313-0.98-1.073-0.98-1.698l0-1.275
					C309.439,137.976,309.879,137.723,310.42,138.035z"/>
			</g>
			<g>
				<g>
					<path style="fill:#27DEBF;" d="M309.435,161.414c0-0.521-0.366-1.154-0.817-1.415l-2.956-1.706
						c-0.226-0.13-0.43-0.143-0.578-0.057c-0.148,0.085-1.389,0.799-1.537,0.888c-0.145,0.086-0.235,0.268-0.235,0.526v1.653
						c0,0.521,0.366,1.154,0.817,1.415l2.956,1.706c0.225,0.13,0.43,0.143,0.578,0.057c0.148-0.085,1.385-0.799,1.533-0.885
						c0.148-0.085,0.239-0.268,0.239-0.529L309.435,161.414z"/>
					<path style="fill:#27DEBF;" d="M304.13,159.177l2.956,1.707c0.451,0.26,0.817,0.894,0.817,1.415l0,1.653
						c0,0.521-0.366,0.732-0.817,0.472l-2.956-1.706c-0.451-0.261-0.817-0.894-0.817-1.415v-1.653
						C303.313,159.128,303.679,158.917,304.13,159.177z"/>
					<path style="opacity:0.15;" d="M309.434,161.414v1.653c0,0.257-0.091,0.445-0.242,0.528c-0.136,0.075-1.2,0.694-1.479,0.853
						c0.121-0.098,0.189-0.264,0.189-0.498v-1.652c0-0.257-0.091-0.543-0.234-0.8l1.532-0.883
						C309.343,160.871,309.434,161.158,309.434,161.414z"/>
					<path style="opacity:0.25;" d="M309.2,160.614l-1.532,0.883c-0.143-0.257-0.355-0.483-0.581-0.611l-2.958-1.705
						c-0.211-0.121-0.4-0.143-0.543-0.083c0.264-0.151,1.358-0.785,1.502-0.86c0.143-0.09,0.347-0.075,0.573,0.053l2.958,1.705
						C308.845,160.131,309.049,160.358,309.2,160.614z"/>
				</g>
				<g>
					<path style="fill:#27DEBF;" d="M318.631,166.728c0-0.521-0.366-1.154-0.817-1.415l-2.956-1.707
						c-0.226-0.13-0.43-0.143-0.578-0.057c-0.148,0.085-1.389,0.799-1.537,0.887c-0.145,0.087-0.235,0.268-0.235,0.526v1.653
						c0,0.521,0.366,1.154,0.817,1.415l2.956,1.706c0.226,0.13,0.43,0.143,0.578,0.057c0.148-0.085,1.385-0.799,1.533-0.885
						c0.148-0.085,0.239-0.268,0.239-0.529L318.631,166.728z"/>
					<path style="fill:#27DEBF;" d="M313.326,164.492l2.956,1.706c0.451,0.26,0.817,0.894,0.817,1.415v1.653
						c0,0.521-0.366,0.732-0.817,0.472l-2.956-1.706c-0.451-0.26-0.817-0.894-0.817-1.415v-1.653
						C312.509,164.443,312.875,164.231,313.326,164.492z"/>
					<path style="opacity:0.15;" d="M318.63,166.729v1.652c0,0.257-0.091,0.445-0.242,0.528c-0.136,0.075-1.2,0.694-1.479,0.853
						c0.121-0.098,0.189-0.264,0.189-0.498v-1.653c0-0.257-0.09-0.543-0.234-0.8l1.532-0.883
						C318.539,166.186,318.63,166.472,318.63,166.729z"/>
					<path style="opacity:0.25;" d="M318.396,165.929l-1.532,0.883c-0.143-0.257-0.355-0.483-0.581-0.611l-2.958-1.705
						c-0.211-0.121-0.4-0.143-0.543-0.083c0.264-0.151,1.358-0.785,1.502-0.86c0.143-0.091,0.347-0.076,0.573,0.053l2.958,1.705
						C318.041,165.446,318.245,165.673,318.396,165.929z"/>
				</g>
				<g>
					<path style="fill:#27DEBF;" d="M327.827,172.043c0-0.521-0.366-1.154-0.817-1.415l-2.956-1.706
						c-0.226-0.13-0.43-0.143-0.578-0.057c-0.148,0.085-1.389,0.799-1.537,0.888c-0.145,0.086-0.235,0.268-0.235,0.526v1.653
						c0,0.521,0.366,1.154,0.817,1.415l2.956,1.707c0.225,0.13,0.43,0.143,0.578,0.057c0.148-0.085,1.385-0.799,1.533-0.885
						c0.148-0.085,0.239-0.268,0.239-0.529L327.827,172.043z"/>
					<path style="fill:#27DEBF;" d="M322.521,169.807l2.956,1.707c0.451,0.26,0.817,0.894,0.817,1.415v1.653
						c0,0.521-0.366,0.732-0.817,0.472l-2.956-1.707c-0.451-0.26-0.817-0.894-0.817-1.415v-1.653
						C321.704,169.757,322.07,169.546,322.521,169.807z"/>
					<path style="opacity:0.15;" d="M327.825,172.044v1.653c0,0.257-0.091,0.445-0.242,0.528c-0.136,0.076-1.2,0.694-1.479,0.853
						c0.121-0.098,0.189-0.264,0.189-0.498v-1.653c0-0.257-0.09-0.543-0.234-0.8l1.532-0.883
						C327.735,171.5,327.825,171.787,327.825,172.044z"/>
					<path style="opacity:0.25;" d="M327.591,171.244l-1.532,0.883c-0.143-0.257-0.355-0.483-0.581-0.611l-2.958-1.705
						c-0.211-0.121-0.4-0.143-0.543-0.083c0.264-0.151,1.358-0.785,1.502-0.86c0.143-0.091,0.347-0.076,0.573,0.053l2.958,1.705
						C327.237,170.761,327.44,170.987,327.591,171.244z"/>
				</g>
			</g>
			<g>
				<path style="fill:#455A64;" d="M355.85,169.69v26.426l-2.181-1.26v-0.506l-2.626-1.509l-0.43,0.249h-0.008l-2.181-1.26v-26.434
					c0-1.041,0.732-1.464,1.63-0.943l4.165,2.407C355.118,167.381,355.85,168.649,355.85,169.69z"/>
				<path style="fill:#263238;" d="M353.669,185.025v9.326l-2.626-1.509l-0.43,0.249h-0.008v-9.839
					c-0.008-0.34,0.189-0.513,0.46-0.453c0.06,0.008,0.121,0.038,0.189,0.075l1.766,1.019
					C353.382,184.104,353.669,184.609,353.669,185.025z"/>
				<path style="fill:#37474F;" d="M353.669,185.025v9.326l-2.626-1.509v-9.839c0-0.076,0.008-0.143,0.023-0.204
					c0.06,0.008,0.121,0.038,0.189,0.075l1.766,1.019C353.382,184.104,353.669,184.609,353.669,185.025z"/>
				<g>
					<path style="fill:#27DEBF;" d="M351.938,184.721l-0.338,0.195l0.017,0.029c-0.038,0.062-0.06,0.144-0.06,0.245
						c0,0.332,0.233,0.736,0.521,0.902c0.087,0.051,0.17,0.073,0.242,0.071l0.017,0.029l0.338-0.195l0,0
						c0.094-0.054,0.152-0.171,0.152-0.337c0-0.332-0.233-0.736-0.521-0.902C352.163,184.674,352.032,184.667,351.938,184.721z"/>
					<path style="opacity:0.15;" d="M351.938,184.721l-0.338,0.195l0.017,0.029c-0.038,0.062-0.06,0.144-0.06,0.245
						c0,0.332,0.233,0.736,0.521,0.902c0.087,0.051,0.17,0.073,0.242,0.071l0.017,0.029l0.338-0.195l0,0
						c0.094-0.054,0.152-0.171,0.152-0.337c0-0.332-0.233-0.736-0.521-0.902C352.163,184.674,352.032,184.667,351.938,184.721z"/>
					<path style="fill:#27DEBF;" d="M352.489,185.855c0,0.332-0.233,0.467-0.521,0.301c-0.288-0.166-0.521-0.57-0.521-0.902
						c0-0.332,0.233-0.467,0.521-0.301C352.256,185.119,352.489,185.523,352.489,185.855z"/>
				</g>
				<g>
					<path style="fill:#27DEBF;" d="M351.7,169.4l-0.742,0.428l0.037,0.064c-0.084,0.135-0.132,0.316-0.132,0.538
						c0,0.729,0.512,1.615,1.143,1.979c0.192,0.111,0.373,0.16,0.532,0.155l0.037,0.064l0.742-0.428l0,0
						c0.207-0.119,0.335-0.375,0.335-0.74c0-0.729-0.512-1.615-1.143-1.979C352.193,169.298,351.907,169.28,351.7,169.4z"/>
					<path style="opacity:0.15;" d="M351.7,169.4l-0.742,0.428l0.037,0.064c-0.084,0.135-0.132,0.316-0.132,0.538
						c0,0.729,0.512,1.615,1.143,1.979c0.192,0.111,0.373,0.16,0.532,0.155l0.037,0.064l0.742-0.428l0,0
						c0.207-0.119,0.335-0.375,0.335-0.74c0-0.729-0.512-1.615-1.143-1.979C352.193,169.298,351.907,169.28,351.7,169.4z"/>
					<path style="fill:#27DEBF;" d="M352.909,171.888c0,0.729-0.512,1.024-1.143,0.66c-0.631-0.364-1.143-1.251-1.143-1.979
						c0-0.729,0.512-1.024,1.143-0.66C352.397,170.273,352.909,171.159,352.909,171.888z"/>
				</g>
				<g>
					<path style="fill:#27DEBF;" d="M351.938,188.3l-0.338,0.195l0.017,0.029c-0.038,0.062-0.06,0.144-0.06,0.245
						c0,0.332,0.233,0.736,0.521,0.902c0.087,0.05,0.17,0.073,0.242,0.071l0.017,0.029l0.338-0.195l0,0
						c0.094-0.054,0.152-0.171,0.152-0.337c0-0.332-0.233-0.736-0.521-0.902C352.163,188.253,352.032,188.245,351.938,188.3z"/>
					<path style="opacity:0.15;" d="M351.938,188.3l-0.338,0.195l0.017,0.029c-0.038,0.062-0.06,0.144-0.06,0.245
						c0,0.332,0.233,0.736,0.521,0.902c0.087,0.05,0.17,0.073,0.242,0.071l0.017,0.029l0.338-0.195l0,0
						c0.094-0.054,0.152-0.171,0.152-0.337c0-0.332-0.233-0.736-0.521-0.902C352.163,188.253,352.032,188.245,351.938,188.3z"/>
					<path style="fill:#27DEBF;" d="M352.489,189.433c0,0.332-0.233,0.467-0.521,0.301c-0.288-0.166-0.521-0.57-0.521-0.902
						c0-0.332,0.233-0.467,0.521-0.301C352.256,188.697,352.489,189.101,352.489,189.433z"/>
				</g>
				<g>
					<path style="fill:#263238;" d="M351.867,174.68l-0.459,0.265l0.023,0.039c-0.052,0.084-0.081,0.196-0.081,0.333
						c0,0.451,0.317,0.999,0.707,1.225c0.119,0.069,0.231,0.099,0.329,0.096l0.023,0.039l0.459-0.265l0,0
						c0.128-0.074,0.207-0.232,0.207-0.458c0-0.451-0.317-0.999-0.707-1.225C352.172,174.617,351.995,174.606,351.867,174.68z"/>
					<path style="fill:#37474F;" d="M352.615,176.219c0,0.451-0.317,0.634-0.707,0.408c-0.391-0.225-0.707-0.774-0.707-1.225
						s0.317-0.634,0.707-0.408C352.298,175.22,352.615,175.769,352.615,176.219z"/>
				</g>
				<g>
					<path style="fill:#263238;" d="M351.867,178.549l-0.459,0.265l0.023,0.039c-0.052,0.084-0.081,0.196-0.081,0.333
						c0,0.451,0.317,0.999,0.707,1.225c0.119,0.069,0.231,0.099,0.329,0.096l0.023,0.039l0.459-0.265l0,0
						c0.128-0.074,0.207-0.232,0.207-0.458c0-0.451-0.317-0.999-0.707-1.225C352.172,178.486,351.995,178.475,351.867,178.549z"/>
					<path style="fill:#37474F;" d="M352.615,180.088c0,0.451-0.317,0.634-0.707,0.408c-0.391-0.226-0.707-0.774-0.707-1.225
						c0-0.451,0.317-0.634,0.707-0.408C352.298,179.089,352.615,179.637,352.615,180.088z"/>
				</g>
			</g>
			<g>
				<g>
					<path style="fill:#27DEBF;" d="M365.373,147.148c0-0.276-0.206-0.618-0.461-0.765l-4.342-2.496
						c-0.254-0.147-0.667-0.147-0.921,0l-5.988,3.438c-0.254,0.147-0.452,0.494-0.442,0.776c0.011,0.282,0.225,0.629,0.48,0.776
						l4.322,2.484c0.254,0.147,0.667,0.147,0.921-0.001l5.97-3.448C365.167,147.766,365.373,147.423,365.373,147.148z"/>
					<path style="opacity:0.2;fill:#FFFFFF;" d="M365.373,147.148c0-0.276-0.206-0.618-0.461-0.765l-4.342-2.496
						c-0.254-0.147-0.667-0.147-0.921,0l-5.988,3.438c-0.254,0.147-0.452,0.494-0.442,0.776c0.011,0.282,0.225,0.629,0.48,0.776
						l4.322,2.484c0.254,0.147,0.667,0.147,0.921-0.001l5.97-3.448C365.167,147.766,365.373,147.423,365.373,147.148z"/>
					<path style="fill:#27DEBF;" d="M364.913,146.915l-5.989,3.439c-0.254,0.147-0.667,0.147-0.921,0l-4.341-2.497
						c-0.254-0.147-0.254-0.385,0-0.532l5.988-3.438c0.254-0.147,0.667-0.147,0.921,0l4.342,2.496
						C365.167,146.53,365.167,146.768,364.913,146.915z"/>
					<path style="opacity:0.5;fill:#FFFFFF;" d="M364.913,146.915l-5.989,3.439c-0.254,0.147-0.667,0.147-0.921,0l-4.341-2.497
						c-0.254-0.147-0.254-0.385,0-0.532l5.988-3.438c0.254-0.147,0.667-0.147,0.921,0l4.342,2.496
						C365.167,146.53,365.167,146.768,364.913,146.915z"/>
					<path style="opacity:0.15;" d="M358.022,151.361l-4.323-2.485c-0.254-0.147-0.469-0.494-0.479-0.775
						c-0.011-0.257,0.153-0.567,0.376-0.731c-0.188,0.147-0.165,0.354,0.065,0.487l4.34,2.497c0.127,0.073,0.295,0.111,0.461,0.109
						l0.002,0.001l-0.001,1.006C358.304,151.468,358.143,151.431,358.022,151.361z"/>
				</g>
				<g>
					<path style="fill:#27DEBF;" d="M363.386,145.167v1.115c0,0.208-0.146,0.462-0.327,0.566l-4.46,2.575
						c-0.181,0.104-0.473,0.104-0.654,0l-2.412-1.393c-0.18-0.104-0.327-0.344-0.327-0.536c0-0.192,0.146-0.432,0.327-0.536
						l2.412-1.393c0.18-0.104,0.438-0.316,0.574-0.473l1.554-1.787c0.137-0.157,0.394-0.2,0.574-0.096l2.412,1.392
						C363.24,144.706,363.386,144.959,363.386,145.167z"/>
					<path style="opacity:0.3;" d="M363.386,145.167v1.115c0,0.208-0.146,0.462-0.327,0.566l-4.46,2.575
						c-0.181,0.104-0.473,0.104-0.654,0l-2.412-1.393c-0.18-0.104-0.327-0.344-0.327-0.536c0-0.192,0.146-0.432,0.327-0.536
						l2.412-1.393c0.18-0.104,0.438-0.316,0.574-0.473l1.554-1.787c0.137-0.157,0.394-0.2,0.574-0.096l2.412,1.392
						C363.24,144.706,363.386,144.959,363.386,145.167z"/>
					<path style="fill:#27DEBF;" d="M358.599,148.728l2.412-1.392c0.18-0.104,0.438-0.316,0.574-0.473l1.554-1.787
						c0.137-0.157,0.101-0.369-0.079-0.473l-2.412-1.392c-0.181-0.104-0.438-0.061-0.574,0.096l-1.554,1.787
						c-0.137,0.157-0.394,0.369-0.574,0.473l-2.412,1.393c-0.18,0.104-0.18,0.273,0,0.377l2.412,1.392
						C358.126,148.832,358.418,148.832,358.599,148.728z"/>
					<path style="opacity:0.15;" d="M363.059,144.601l-2.412-1.392c-0.181-0.104-0.438-0.061-0.574,0.096l-1.554,1.787
						c-0.071,0.081-0.173,0.177-0.281,0.265l3.066,1.769c0.108-0.088,0.21-0.183,0.28-0.264l1.554-1.787
						C363.275,144.917,363.24,144.706,363.059,144.601z"/>
				</g>
				<path style="opacity:0.15;" d="M358.238,148.802v0.694c-0.106-0.008-0.211-0.023-0.294-0.075l-2.407-1.389
					c-0.181-0.106-0.332-0.347-0.332-0.536c0-0.174,0.121-0.377,0.272-0.483c-0.121,0.09-0.098,0.234,0.06,0.324l2.407,1.388
					C358.027,148.771,358.133,148.802,358.238,148.802z"/>
				<path style="opacity:0.05;" d="M361.304,147.126l-3.066-1.769c-0.101,0.082-0.206,0.158-0.293,0.209l-2.412,1.393
					c-0.18,0.104-0.18,0.273,0,0.377l2.412,1.392c0.181,0.104,0.473,0.104,0.654,0l2.412-1.392
					C361.098,147.285,361.203,147.209,361.304,147.126z"/>
			</g>
			<g>
				<g>
					<path style="fill:#263238;" d="M342.134,130.779v-0.778h0.185c0.19-0.354,0.526-0.688,1.012-0.968
						c1.596-0.922,4.184-0.922,5.781,0c0.486,0.28,0.822,0.614,1.012,0.968h0.186v0.778l0,0c0,0.604-0.399,1.208-1.197,1.669
						c-1.596,0.922-4.185,0.922-5.781,0C342.534,131.987,342.134,131.383,342.134,130.779z"/>
					<path style="fill:#37474F;" d="M349.113,131.67c1.596-0.922,1.596-2.416,0-3.338c-1.596-0.922-4.185-0.922-5.781,0
						c-1.596,0.922-1.596,2.416,0,3.338C344.928,132.592,347.516,132.592,349.113,131.67z"/>
				</g>
				<g>
					<path style="fill:#27DEBF;" d="M343.053,129.692v-1.348h0.144c0.147-0.275,0.408-0.534,0.784-0.751
						c1.237-0.714,3.244-0.714,4.482,0c0.377,0.217,0.637,0.476,0.785,0.751h0.144v1.348l0,0c0,0.468-0.309,0.936-0.928,1.294
						c-1.238,0.714-3.244,0.714-4.482,0C343.362,130.629,343.053,130.161,343.053,129.692z"/>
					<path style="opacity:0.15;" d="M343.053,129.692v-1.348h0.144c0.147-0.275,0.408-0.534,0.784-0.751
						c1.237-0.714,3.244-0.714,4.482,0c0.377,0.217,0.637,0.476,0.785,0.751h0.144v1.348l0,0c0,0.468-0.309,0.936-0.928,1.294
						c-1.238,0.714-3.244,0.714-4.482,0C343.362,130.629,343.053,130.161,343.053,129.692z"/>
					<path style="fill:#27DEBF;" d="M348.463,129.638c1.237-0.715,1.237-1.873,0-2.588c-1.238-0.714-3.244-0.714-4.482,0
						c-1.237,0.715-1.237,1.873,0,2.588C345.219,130.353,347.225,130.353,348.463,129.638z"/>
				</g>
			</g>
			<g>
				<path style="fill:#263238;" d="M358.128,126.154l-3.35,1.933c-0.337,0.191-0.882,0.191-1.22,0l-3.344-1.933
					c-0.337-0.197-0.337-0.511,0-0.703l3.344-1.934c0.337-0.197,0.882-0.197,1.22,0l3.35,1.934
					C358.465,125.642,358.465,125.957,358.128,126.154z"/>
				<path style="fill:#37474F;" d="M358.128,126.154l-3.35,1.933c-0.337,0.191-0.882,0.191-1.22,0l-3.344-1.933l3.344-1.934
					c0.337-0.191,0.882-0.191,1.22,0L358.128,126.154z"/>
				<g>
					<path style="fill:#27DEBF;" d="M352.712,126.11v-0.62h0.066c0.068-0.126,0.188-0.246,0.361-0.346
						c0.57-0.329,1.493-0.329,2.063,0c0.173,0.1,0.293,0.219,0.361,0.346h0.066v0.621l0,0c0,0.216-0.142,0.431-0.427,0.596
						c-0.57,0.329-1.493,0.329-2.063,0C352.855,126.542,352.712,126.326,352.712,126.11z"/>
					<path style="opacity:0.15;" d="M352.712,126.11v-0.62h0.066c0.068-0.126,0.188-0.246,0.361-0.346
						c0.57-0.329,1.493-0.329,2.063,0c0.173,0.1,0.293,0.219,0.361,0.346h0.066v0.621l0,0c0,0.216-0.142,0.431-0.427,0.596
						c-0.57,0.329-1.493,0.329-2.063,0C352.855,126.542,352.712,126.326,352.712,126.11z"/>
					<path style="fill:#27DEBF;" d="M355.203,126.086c0.57-0.329,0.57-0.862,0-1.191c-0.57-0.329-1.493-0.329-2.063,0
						c-0.57,0.329-0.57,0.862,0,1.191C353.709,126.415,354.633,126.415,355.203,126.086z"/>
				</g>
			</g>
			<g>
				<path style="fill:#263238;" d="M364.719,122.349l-3.35,1.934c-0.337,0.191-0.883,0.191-1.22,0l-3.344-1.934
					c-0.337-0.197-0.337-0.511,0-0.703l3.344-1.934c0.337-0.197,0.883-0.197,1.22,0l3.35,1.934
					C365.056,121.837,365.056,122.152,364.719,122.349z"/>
				<path style="fill:#37474F;" d="M364.719,122.349l-3.35,1.934c-0.337,0.191-0.883,0.191-1.22,0l-3.344-1.934l3.344-1.934
					c0.337-0.191,0.883-0.191,1.22,0L364.719,122.349z"/>
				<g>
					<path style="fill:#27DEBF;" d="M359.303,122.305v-0.62h0.066c0.068-0.126,0.188-0.246,0.361-0.346
						c0.57-0.329,1.493-0.329,2.063,0c0.173,0.1,0.293,0.219,0.361,0.346h0.066v0.62l0,0c0,0.216-0.142,0.431-0.427,0.596
						c-0.57,0.329-1.493,0.329-2.063,0C359.445,122.737,359.303,122.521,359.303,122.305z"/>
					<path style="opacity:0.15;" d="M359.303,122.305v-0.62h0.066c0.068-0.126,0.188-0.246,0.361-0.346
						c0.57-0.329,1.493-0.329,2.063,0c0.173,0.1,0.293,0.219,0.361,0.346h0.066v0.62l0,0c0,0.216-0.142,0.431-0.427,0.596
						c-0.57,0.329-1.493,0.329-2.063,0C359.445,122.737,359.303,122.521,359.303,122.305z"/>
					<path style="fill:#27DEBF;" d="M361.793,122.281c0.57-0.329,0.57-0.862,0-1.191c-0.57-0.329-1.493-0.329-2.063,0
						c-0.57,0.329-0.57,0.862,0,1.191C360.3,122.609,361.224,122.609,361.793,122.281z"/>
				</g>
			</g>
			<g>
				<g id="XMLID_15993_">
					<path id="XMLID_15994_" style="fill:#27DEBF;" d="M392.875,152.292l-0.006-0.006l-0.389-0.224
						c-2.286-1.206-5.394-0.972-8.82,0.995c-7.069,4.066-12.81,13.965-12.826,22.119c-0.003,1.505,0.189,2.85,0.553,4.012
						c0.489,1.552,1.271,2.778,2.288,3.649c0.251,0.212,0.514,0.402,0.788,0.568l0.017,0.011c0.017,0.012,0.029,0.017,0.046,0.023
						l0.057,0.035l0.211,0.12l8.581,4.972c-0.354-0.218-0.68-0.476-0.988-0.757c-1.668-1.531-2.653-4.091-2.646-7.484
						c0.016-8.148,5.757-18.053,12.826-22.113c2.939-1.688,5.646-2.1,7.802-1.415c0.366,0.109,0.709,0.253,1.041,0.431
						L392.875,152.292z"/>
					<path id="XMLID_264_" style="opacity:0.25;" d="M392.875,152.292l-0.006-0.006l-0.389-0.224
						c-2.286-1.206-5.394-0.972-8.82,0.995c-7.069,4.066-12.81,13.965-12.826,22.119c-0.003,1.505,0.189,2.85,0.553,4.012
						c0.489,1.552,1.271,2.778,2.288,3.649c0.251,0.212,0.514,0.402,0.788,0.568l0.017,0.011c0.017,0.012,0.029,0.017,0.046,0.023
						l0.057,0.035l0.211,0.12l8.581,4.972c-0.354-0.218-0.68-0.476-0.988-0.757c-1.668-1.531-2.653-4.091-2.646-7.484
						c0.016-8.148,5.757-18.053,12.826-22.113c2.939-1.688,5.646-2.1,7.802-1.415c0.366,0.109,0.709,0.253,1.041,0.431
						L392.875,152.292z"/>
					<path id="XMLID_16014_" style="fill:#455A64;" d="M373.675,182.838c0.246,0.212,0.514,0.402,0.788,0.568l-4.527-2.624
						c-0.012-0.006-0.017-0.011-0.023-0.017l-0.051-0.029c-2.275-1.355-3.677-4.207-3.669-8.247
						c0.016-8.148,5.758-18.053,12.826-22.113c2.051-1.18,3.992-1.737,5.708-1.734c1.242,0.002,2.368,0.296,3.334,0.859l4.418,2.561
						c-2.286-1.206-5.394-0.972-8.82,0.995c-7.069,4.066-12.81,13.965-12.826,22.119c-0.003,1.505,0.189,2.85,0.553,4.012
						C371.866,180.741,372.653,181.972,373.675,182.838z"/>
					<path id="XMLID_16015_" style="fill:#37474F;" d="M419.265,173.699c-0.016,8.154-5.758,18.053-12.826,22.113
						c-2.051,1.18-3.992,1.743-5.708,1.74c-1.23-0.002-2.345-0.296-3.311-0.848l-0.017-0.011c-0.006,0-0.006,0-0.006,0
						l-13.831-8.021l-0.189-0.103c-0.354-0.218-0.68-0.476-0.988-0.757c-1.668-1.531-2.653-4.091-2.646-7.484
						c0.016-8.148,5.757-18.053,12.826-22.113c2.939-1.688,5.646-2.1,7.802-1.415c0.366,0.109,0.709,0.253,1.041,0.431l0.057,0.029
						l0.36,0.212l13.694,7.935l0,0.006C417.843,166.743,419.273,169.613,419.265,173.699z"/>
				</g>
				<g>
					<g>
						<g>
							<path style="fill:#37474F;" d="M378.952,184.953c-0.066,0-0.132-0.016-0.193-0.052l-4.842-2.783
								c-0.185-0.106-0.248-0.342-0.141-0.527c0.106-0.185,0.343-0.247,0.527-0.141l4.842,2.783
								c0.185,0.106,0.248,0.342,0.141,0.527C379.215,184.884,379.084,184.953,378.952,184.953z"/>
						</g>
						<g>
							<path style="fill:#37474F;" d="M377.995,181.521c-0.065,0-0.132-0.016-0.193-0.052l-4.842-2.783
								c-0.185-0.106-0.248-0.342-0.141-0.527c0.105-0.185,0.342-0.248,0.527-0.141l4.842,2.783
								c0.185,0.106,0.248,0.342,0.141,0.527C378.258,181.451,378.127,181.521,377.995,181.521z"/>
						</g>
						<g>
							<path style="fill:#37474F;" d="M377.646,178.257c-0.066,0-0.132-0.017-0.193-0.052l-4.842-2.783
								c-0.185-0.106-0.248-0.342-0.141-0.527c0.106-0.185,0.344-0.247,0.527-0.141l4.842,2.783
								c0.185,0.106,0.248,0.342,0.141,0.527C377.909,178.188,377.779,178.257,377.646,178.257z"/>
						</g>
						<g>
							<path style="fill:#37474F;" d="M377.831,175.293c-0.066,0-0.132-0.017-0.193-0.052l-4.842-2.784
								c-0.185-0.106-0.248-0.342-0.141-0.527c0.106-0.184,0.343-0.247,0.527-0.141l4.842,2.784
								c0.185,0.106,0.248,0.342,0.141,0.527C378.094,175.223,377.964,175.293,377.831,175.293z"/>
						</g>
						<g>
							<path style="fill:#37474F;" d="M378.652,172.453c-0.066,0-0.132-0.017-0.193-0.052l-4.843-2.783
								c-0.185-0.106-0.248-0.342-0.141-0.527c0.106-0.184,0.343-0.248,0.527-0.141l4.843,2.783
								c0.185,0.106,0.248,0.342,0.141,0.527C378.915,172.384,378.785,172.453,378.652,172.453z"/>
						</g>
						<g>
							<path style="fill:#37474F;" d="M379.789,169.646c-0.066,0-0.132-0.017-0.193-0.052l-4.843-2.784
								c-0.185-0.106-0.248-0.342-0.141-0.527c0.106-0.185,0.344-0.248,0.527-0.141l4.843,2.784
								c0.185,0.106,0.248,0.342,0.141,0.527C380.052,169.577,379.921,169.646,379.789,169.646z"/>
						</g>
						<g>
							<path style="fill:#37474F;" d="M381.207,166.927c-0.065,0-0.132-0.017-0.193-0.052l-4.843-2.783
								c-0.185-0.106-0.248-0.342-0.141-0.527c0.106-0.185,0.342-0.247,0.527-0.141l4.842,2.783
								c0.185,0.106,0.248,0.342,0.141,0.527C381.47,166.858,381.34,166.927,381.207,166.927z"/>
						</g>
						<g>
							<path style="fill:#37474F;" d="M382.875,164.356c-0.066,0-0.132-0.017-0.193-0.052l-4.842-2.783
								c-0.185-0.106-0.248-0.342-0.141-0.527c0.106-0.185,0.343-0.248,0.527-0.141l4.842,2.783
								c0.185,0.106,0.248,0.342,0.141,0.527C383.138,164.286,383.008,164.356,382.875,164.356z"/>
						</g>
						<g>
							<path style="fill:#37474F;" d="M384.76,161.989c-0.066,0-0.132-0.017-0.193-0.052l-4.843-2.784
								c-0.185-0.106-0.248-0.342-0.141-0.527c0.106-0.185,0.343-0.247,0.527-0.141l4.842,2.784
								c0.185,0.106,0.248,0.342,0.141,0.527C385.023,161.919,384.893,161.989,384.76,161.989z"/>
						</g>
						<g>
							<path style="fill:#37474F;" d="M386.826,159.883c-0.066,0-0.132-0.017-0.193-0.052l-4.842-2.783
								c-0.185-0.106-0.248-0.342-0.141-0.527c0.106-0.185,0.343-0.247,0.527-0.141l4.842,2.783
								c0.185,0.106,0.248,0.342,0.141,0.527C387.089,159.814,386.959,159.883,386.826,159.883z"/>
						</g>
						<g>
							<path style="fill:#37474F;" d="M389.042,158.097c-0.066,0-0.132-0.017-0.193-0.052l-4.842-2.783
								c-0.185-0.106-0.248-0.342-0.141-0.527c0.106-0.185,0.343-0.247,0.527-0.141l4.842,2.783
								c0.185,0.106,0.248,0.342,0.141,0.527C389.305,158.028,389.175,158.097,389.042,158.097z"/>
						</g>
						<g>
							<path style="fill:#37474F;" d="M391.682,156.538c-0.066,0-0.132-0.017-0.193-0.052l-4.842-2.784
								c-0.185-0.106-0.248-0.342-0.141-0.527c0.106-0.185,0.344-0.248,0.527-0.141l4.842,2.784
								c0.185,0.106,0.248,0.342,0.141,0.527C391.945,156.468,391.815,156.538,391.682,156.538z"/>
						</g>
						<g>
							<path style="fill:#37474F;" d="M394.766,155.502c-0.065,0-0.132-0.017-0.193-0.052l-4.842-2.783
								c-0.185-0.106-0.248-0.342-0.141-0.527c0.106-0.184,0.343-0.248,0.527-0.141l4.842,2.783
								c0.185,0.106,0.248,0.342,0.141,0.527C395.029,155.432,394.898,155.502,394.766,155.502z"/>
						</g>
					</g>
				</g>
				<path style="opacity:0.15;" d="M392.403,178.308c-1.177,2.981-1.849,6.052-1.856,8.919c-0.008,2.634,0.558,4.784,1.547,6.384
					l-8.527-4.935l-0.189-0.106c-0.008,0-0.008-0.008-0.015-0.008l-8.565-4.965l-0.211-0.121l-0.06-0.038
					c-0.015-0.008-0.03-0.008-0.045-0.023l-0.015-0.008l-4.528-2.626c-0.015-0.007-0.015-0.015-0.023-0.015l-0.053-0.03
					c-2.271-1.358-3.675-4.211-3.667-8.248c0.008-2.701,0.641-5.599,1.743-8.406L392.403,178.308z"/>
				<g>
					<g>
						<g>
							<path style="fill:#455A64;" d="M414.497,160.466c-2.767-1.613-6.591-1.401-10.83,1.035
								c-8.475,4.871-15.362,16.745-15.381,26.52c-0.009,4.788,1.636,8.172,4.311,9.813c0.901,0.553,6.926,3.82,7.777,4.318
								c2.768,1.62,6.596,1.411,10.84-1.028c8.475-4.871,15.362-16.744,15.381-26.52c0.009-4.826-1.662-8.225-4.374-9.851
								C421.337,164.222,415.353,160.965,414.497,160.466z"/>
							<path style="fill:#455A64;" d="M390.067,195.272c0.086,0.137,0.171,0.274,0.265,0.402c-0.103-0.137-0.197-0.274-0.291-0.419
								l0.017,0.009C390.058,195.272,390.067,195.272,390.067,195.272z"/>
							<path style="fill:#37474F;" d="M395.903,192.244c-0.019,9.776,6.836,13.751,15.311,8.88
								c8.475-4.871,15.362-16.744,15.381-26.52c0.019-9.776-6.836-13.751-15.311-8.88
								C402.809,170.595,395.923,182.468,395.903,192.244z"/>
							<path style="fill:#263238;" d="M404.373,199.431c-4.25-0.009-4.7-5.024-4.696-7.18c0.017-8.413,6.193-19.063,13.487-23.256
								c1.802-1.035,3.518-1.581,4.962-1.578c4.25,0.008,4.7,5.024,4.696,7.18c-0.017,8.413-6.193,19.063-13.487,23.255
								C407.533,198.888,405.817,199.434,404.373,199.431L404.373,199.431z"/>
							<path style="fill:#27DEBF;" d="M417.8,169.555c0.001-0.554-0.029-1.298-0.145-2.096c-1.343,0.099-2.877,0.609-4.491,1.537
								c-7.294,4.193-13.47,14.842-13.487,23.256c-0.001,0.554,0.029,1.298,0.145,2.096c1.343-0.099,2.877-0.609,4.491-1.537
								C411.607,188.618,417.784,177.969,417.8,169.555z"/>
							<path style="opacity:0.3;" d="M417.8,169.555c0.001-0.554-0.029-1.298-0.145-2.096c-1.343,0.099-2.877,0.609-4.491,1.537
								c-7.294,4.193-13.47,14.842-13.487,23.256c-0.001,0.554,0.029,1.298,0.145,2.096c1.343-0.099,2.877-0.609,4.491-1.537
								C411.607,188.618,417.784,177.969,417.8,169.555z"/>
							<path style="fill:#E0E0E0;" d="M409.215,173.72c2.879-3.479,6.594-4.633,7.171-3.342c0.577,1.292-1.255,13.849-13.4,21.224
								c0,0,6.572-5.665,9.769-12.801C414.626,174.624,412.925,171.2,409.215,173.72z"/>
						</g>
					</g>
					<path style="opacity:0.15;" d="M400.008,201.945c-0.051-0.026-0.103-0.06-0.154-0.085c-0.043-0.026-0.077-0.043-0.12-0.069
						c-0.077-0.043-0.162-0.085-0.257-0.137c-0.06-0.043-0.128-0.077-0.205-0.12c-0.145-0.077-0.299-0.163-0.462-0.248
						c-0.317-0.18-0.667-0.376-1.035-0.573c-1.215-0.667-2.609-1.437-3.661-2.019c-0.325-0.188-0.616-0.351-0.855-0.479
						c-0.299-0.171-0.53-0.308-0.659-0.385c-0.342-0.205-0.667-0.445-0.967-0.71c-0.145-0.12-0.282-0.257-0.419-0.393
						c-0.231-0.222-0.445-0.471-0.633-0.727c-0.094-0.111-0.171-0.214-0.248-0.325c-0.094-0.128-0.18-0.265-0.265-0.402
						c0,0-0.008,0-0.008-0.009l-0.017-0.009c-1.121-1.814-1.762-4.252-1.754-7.237c0.009-3.251,0.77-6.733,2.104-10.112
						c0.171-0.436,0.351-0.864,0.539-1.283c0.137-0.317,0.274-0.633,0.428-0.941c0.146-0.316,0.299-0.624,0.453-0.932
						c0-0.009,0-0.017,0.008-0.026l7.546,4.38c-2.156,4.277-3.456,8.906-3.465,13.14c-0.009,2.943,0.607,5.355,1.702,7.169
						C398.254,200.473,399.058,201.32,400.008,201.945z"/>
				</g>
			</g>
			<g>
				<g>
					<path style="fill:#263238;" d="M331.333,99.077v-1.083h0.258c0.265-0.493,0.732-0.958,1.409-1.349
						c2.223-1.284,5.828-1.284,8.051,0c0.677,0.391,1.144,0.856,1.409,1.349h0.258v1.084l0,0c0,0.841-0.556,1.682-1.667,2.324
						c-2.223,1.284-5.828,1.284-8.051,0C331.889,100.76,331.333,99.918,331.333,99.077z"/>
					<path style="fill:#37474F;" d="M341.051,100.318c2.223-1.284,2.223-3.365,0-4.648c-2.223-1.284-5.828-1.284-8.051,0
						s-2.223,3.365,0,4.648S338.828,101.602,341.051,100.318z"/>
				</g>
				<path style="fill:#263238;" d="M368.338,95.619l-26.011-15.017c-1.381-0.792-3.033-0.792-4.414,0
					c-1.381,0.8-2.211,2.234-2.211,3.826v13.047v0.03c0.008,0.189,0.136,0.377,0.392,0.513c0.513,0.302,1.351,0.302,1.864,0
					c0.249-0.136,0.377-0.325,0.385-0.513v-0.03V84.428c0-0.641,0.332-1.215,0.89-1.532c0.558-0.325,1.215-0.325,1.773,0
					l26.011,15.017c0.634,0.362,1.441,0.143,1.803-0.483C369.184,96.796,368.972,95.989,368.338,95.619z"/>
				<g>
					<path style="fill:#27DEBF;" d="M403.894,114.466l0.002-0.003c-1.622-2.799-31.455-22.013-39.2-26.497
						c-0.791-0.507-1.907-0.467-3.148,0.249c-2.397,1.384-4.34,4.75-4.34,7.517c0,1.431,0.522,2.418,1.356,2.849
						c7.804,4.497,38.63,20.906,42.833,20.717c1.693,0,3.065-1.372,3.065-3.065C404.461,115.574,404.248,114.966,403.894,114.466z"
						/>
					<path style="opacity:0.1;" d="M404.322,117.098c-0.868,1.225-2.406,1.854-7.223-0.241c-4.48-1.949-30.521-17.152-39.742-22.505
						c-0.095,0.468-0.151,0.933-0.151,1.381c0,1.431,0.522,2.418,1.356,2.849c7.804,4.497,38.63,20.906,42.833,20.717
						C402.786,119.298,403.947,118.366,404.322,117.098z"/>
				</g>
			</g>
			<g>
				<path style="fill:#27DEBF;" d="M329.681,126.502c0-0.275,0.206-0.618,0.461-0.765l4.342-2.496c0.254-0.147,0.667-0.147,0.921,0
					l3.096,1.789c0.254,0.147,0.452,0.494,0.442,0.776c-0.01,0.282-0.225,0.629-0.48,0.776l-4.322,2.484
					c-0.254,0.147-0.667,0.147-0.921-0.001l-3.078-1.799C329.887,127.12,329.681,126.777,329.681,126.502z"/>
				<path style="opacity:0.2;fill:#FFFFFF;" d="M329.681,126.502c0-0.275,0.206-0.618,0.461-0.765l4.342-2.496
					c0.254-0.147,0.667-0.147,0.921,0l3.096,1.789c0.254,0.147,0.452,0.494,0.442,0.776c-0.01,0.282-0.225,0.629-0.48,0.776
					l-4.322,2.484c-0.254,0.147-0.667,0.147-0.921-0.001l-3.078-1.799C329.887,127.12,329.681,126.777,329.681,126.502z"/>
				<path style="fill:#27DEBF;" d="M330.142,126.269l3.097,1.79c0.254,0.147,0.667,0.147,0.921,0l4.341-2.497
					c0.254-0.147,0.254-0.385,0-0.532l-3.096-1.789c-0.254-0.147-0.667-0.147-0.921,0l-4.342,2.496
					C329.888,125.884,329.888,126.122,330.142,126.269z"/>
				<path style="opacity:0.5;fill:#FFFFFF;" d="M330.142,126.269l3.097,1.79c0.254,0.147,0.667,0.147,0.921,0l4.341-2.497
					c0.254-0.147,0.254-0.385,0-0.532l-3.096-1.789c-0.254-0.147-0.667-0.147-0.921,0l-4.342,2.496
					C329.888,125.884,329.888,126.122,330.142,126.269z"/>
				<path style="opacity:0.15;" d="M334.141,129.066l4.323-2.485c0.254-0.147,0.469-0.494,0.479-0.775
					c0.011-0.257-0.153-0.568-0.376-0.731c0.188,0.147,0.165,0.354-0.065,0.487l-4.34,2.497c-0.127,0.073-0.294,0.111-0.461,0.109
					l-0.002,0.001l0.001,1.007C333.858,129.173,334.019,129.137,334.141,129.066z"/>
			</g>
			<g>
				<path style="fill:#27DEBF;" d="M302.024,110.615c0-0.275,0.206-0.618,0.461-0.765l4.342-2.496c0.254-0.147,0.667-0.147,0.921,0
					l3.096,1.789c0.254,0.147,0.452,0.494,0.442,0.776c-0.011,0.282-0.225,0.629-0.48,0.776l-4.322,2.484
					c-0.254,0.147-0.667,0.147-0.921,0l-3.078-1.799C302.23,111.233,302.024,110.89,302.024,110.615z"/>
				<path style="opacity:0.2;fill:#FFFFFF;" d="M302.024,110.615c0-0.275,0.206-0.618,0.461-0.765l4.342-2.496
					c0.254-0.147,0.667-0.147,0.921,0l3.096,1.789c0.254,0.147,0.452,0.494,0.442,0.776c-0.011,0.282-0.225,0.629-0.48,0.776
					l-4.322,2.484c-0.254,0.147-0.667,0.147-0.921,0l-3.078-1.799C302.23,111.233,302.024,110.89,302.024,110.615z"/>
				<path style="fill:#27DEBF;" d="M302.485,110.382l3.097,1.79c0.254,0.147,0.667,0.147,0.921,0l4.341-2.497
					c0.254-0.147,0.254-0.385,0-0.532l-3.096-1.789c-0.254-0.147-0.667-0.147-0.921,0l-4.342,2.496
					C302.23,109.997,302.23,110.235,302.485,110.382z"/>
				<path style="opacity:0.5;fill:#FFFFFF;" d="M302.485,110.382l3.097,1.79c0.254,0.147,0.667,0.147,0.921,0l4.341-2.497
					c0.254-0.147,0.254-0.385,0-0.532l-3.096-1.789c-0.254-0.147-0.667-0.147-0.921,0l-4.342,2.496
					C302.23,109.997,302.23,110.235,302.485,110.382z"/>
				<path style="opacity:0.15;" d="M306.483,113.179l4.323-2.485c0.254-0.147,0.469-0.494,0.479-0.775
					c0.011-0.257-0.153-0.567-0.376-0.731c0.188,0.147,0.165,0.354-0.065,0.487l-4.34,2.497c-0.127,0.073-0.295,0.111-0.461,0.109
					l-0.002,0.001l0.001,1.006C306.201,113.286,306.362,113.25,306.483,113.179z"/>
			</g>
			<g id="XMLID_262_">
				<path id="XMLID_282_" d="M309.121,102.305v7.026l-2.748,1.587v-9.33c0-0.483,0.335-0.674,0.753-0.435L309.121,102.305z"/>
				<path id="XMLID_280_" style="fill:#37474F;" d="M336.584,113.953v11.375l-2.623,1.518l-1.766-1.022v-9.33
					c0-0.478-0.339-1.065-0.753-1.305l-21.537-12.43l-2.779-1.605c-0.418-0.239-0.753-0.048-0.753,0.435v9.33l-1.77-1.022v-11.37
					c0-0.048,0.004-0.1,0.013-0.148c0.057-0.448,0.37-0.944,0.744-1.157l1.118-0.648c0.413-0.239,1.087-0.239,1.505,0l27.849,16.075
					C336.249,112.892,336.584,113.475,336.584,113.953z"/>
				<path id="XMLID_263_" style="fill:#263238;" d="M333.961,115.471v11.375l-1.766-1.022v-9.33c0-0.478-0.339-1.065-0.753-1.305
					l-21.537-12.43l-2.779-1.605c-0.418-0.239-0.753-0.048-0.753,0.435v9.33l-1.77-1.022v-11.37c0-0.048,0.004-0.1,0.013-0.148
					c0.065-0.37,0.374-0.5,0.744-0.287l27.848,16.075C333.621,114.41,333.961,114.993,333.961,115.471z"/>
			</g>
		</g>
	</g>
</g>
</svg>
